<svg version="1.1" id="Layer_1" xmlns="http://www.w3.org/2000/svg" xmlns:xlink="http://www.w3.org/1999/xlink" x="0px" y="0px"
	 width="100%" viewBox="0 0 64 64" enable-background="new 0 0 64 64" xml:space="preserve">
<path fill="#FFFFFF" opacity="1.000000" stroke="none" 
	d="
M1.000000,35.000000 
	C1.000000,23.704357 1.000000,12.408713 1.000000,1.056535 
	C22.224579,1.056535 43.449333,1.056535 65.000000,1.056535 
	C65.000000,12.018753 65.000000,23.040718 64.671280,34.412254 
	C61.304745,32.533165 58.529343,29.624336 55.136684,28.315481 
	C52.882790,27.445951 51.750000,26.743231 50.936462,24.537275 
	C48.936001,19.112894 42.717388,15.110863 36.539829,15.101451 
	C32.693958,16.252096 29.270105,17.518692 25.806343,18.664661 
	C24.566971,19.074701 23.168276,19.577080 21.950346,19.377605 
	C16.960640,18.560387 12.935767,20.534842 9.751405,23.910498 
	C6.532722,27.322540 3.893221,31.280941 1.000000,35.000000 
z"/>
<path fill="#01C3FF" opacity="1.000000" stroke="none" 
	d="
M36.946095,15.169790 
	C42.717388,15.110863 48.936001,19.112894 50.936462,24.537275 
	C51.750000,26.743231 52.882790,27.445951 55.136684,28.315481 
	C58.529343,29.624336 61.304745,32.533165 64.671280,34.880913 
	C65.000000,37.700012 65.000000,40.400028 64.672447,43.667641 
	C61.760372,49.282997 57.682129,51.540138 52.183296,50.549507 
	C54.169937,46.669937 53.243500,45.097767 48.887661,45.035400 
	C40.593063,44.916637 32.295322,45.039043 23.999403,44.983727 
	C19.231865,44.951939 15.778842,42.610558 13.991387,38.269798 
	C11.309525,31.757008 15.428526,25.783051 23.449564,24.041018 
	C24.954981,23.714067 26.531868,23.154795 27.771206,22.274120 
	C30.921520,20.035505 33.899265,17.554039 36.946095,15.169790 
z"/>
<path fill="#FFFFFF" opacity="1.000000" stroke="none" 
	d="
M52.017551,50.833664 
	C57.682129,51.540138 61.760372,49.282997 64.672447,44.117619 
	C65.000000,50.970951 65.000000,57.941906 65.000000,64.956429 
	C43.784317,64.956429 22.568525,64.956429 1.000000,64.956429 
	C1.000000,58.316742 1.000000,51.627285 1.328738,44.582554 
	C3.849841,47.827469 6.311724,51.024475 11.119087,51.000439 
	C24.751846,50.932274 38.384720,50.887592 52.017551,50.833664 
z"/>
<path fill="#00ABF1" opacity="1.000000" stroke="none" 
	d="
M52.183296,50.549507 
	C38.384720,50.887592 24.751846,50.932274 11.119087,51.000439 
	C6.311724,51.024475 3.849841,47.827469 1.328738,44.113640 
	C1.000000,41.299988 1.000000,38.599972 1.000000,35.449982 
	C3.893221,31.280941 6.532722,27.322540 9.751405,23.910498 
	C12.935767,20.534842 16.960640,18.560387 21.950346,19.377605 
	C23.168276,19.577080 24.566971,19.074701 25.806343,18.664661 
	C29.270105,17.518692 32.693958,16.252096 36.539829,15.101451 
	C33.899265,17.554039 30.921520,20.035505 27.771206,22.274120 
	C26.531868,23.154795 24.954981,23.714067 23.449564,24.041018 
	C15.428526,25.783051 11.309525,31.757008 13.991387,38.269798 
	C15.778842,42.610558 19.231865,44.951939 23.999403,44.983727 
	C32.295322,45.039043 40.593063,44.916637 48.887661,45.035400 
	C53.243500,45.097767 54.169937,46.669937 52.183296,50.549507 
z"/>
</svg>